<?xml version="1.0" encoding="UTF-8"?><svg id="Ebene_1" xmlns="http://www.w3.org/2000/svg" viewBox="0 0 14601.43 1998.92"><defs><style>.cls-1{fill:#fff;}.cls-2{fill:#cde438;stroke:#fff;stroke-miterlimit:10;}</style></defs><g id="Y7236e.tif"><g><path class="cls-2" d="M835.49,1998.92c-.04-2.33-.13-4.66-.13-6.99,0-344.65,0-689.3,0-1033.95v-6.37c83.3-43.06,166.58-86.1,250.58-129.52v737.15c1.98-.94,3.29-1.48,4.51-2.17,87.38-49.3,174.74-98.62,262.15-147.86,2.83-1.6,3.93-3.3,3.9-6.61-.17-18.99-.08-37.98-.08-56.97V691.49c0-1.17,.16-2.36-.03-3.49-.73-4.26,1.16-6.43,4.97-8.39,78.67-40.51,157.27-81.17,235.87-121.8,8.27-4.28,16.54-8.56,24.83-12.83,1.45-.75,2.96-1.39,4.74-2.22v1021.42c-1.49,.88-3.02,1.85-4.61,2.73-259.87,142.67-519.74,285.34-779.6,428.03-2.13,1.17-4.08,2.65-6.11,3.99h-1Z"/><path class="cls-2" d="M0,545.65c32.05,16.6,64.09,33.22,96.15,49.8,56.44,29.18,112.88,58.38,169.39,87.43,3.72,1.91,5.17,3.99,5.16,8.31-.14,94.62-.11,189.24-.11,283.85v6.89c90.7-52.37,180.69-104.32,270.81-156.36,83.34,43.08,166.66,86.14,250.05,129.24V1992.17c-2.02-1.11-3.68-1.98-5.3-2.92-77.06-44.57-154.11-89.15-231.16-133.72-3.6-2.08-7.1-4.36-10.83-6.2-2.67-1.31-3.63-3.12-3.31-5.94,.15-1.32,.03-2.66,.03-3.99v-701.52c-2.31,1.3-3.97,2.2-5.61,3.16-78.03,45.56-156.05,91.11-234.07,136.67-9.05,5.29-18.07,10.64-27.18,15.81-2.43,1.38-3.88,2.91-3.45,5.85,.19,1.31,.03,2.66,.03,3.99,0,126.6,0,253.2,0,379.8v6.53c-2.35,.71-3.68-.87-5.13-1.7-36.46-21.04-72.9-42.12-109.33-63.21-50.41-29.17-100.81-58.34-151.23-87.48-1.53-.89-3.26-1.44-4.9-2.15,0-329.84,0-659.67,0-989.51Z"/><path class="cls-2" d="M818.78,0c269.57,161.41,539.03,322.75,809.57,484.74-2.54,1.51-3.97,2.45-5.49,3.24-34.41,17.82-68.83,35.64-103.26,53.43-54.82,28.34-109.66,56.63-164.41,85.1-3.75,1.95-6.37,1.71-9.94-.34-84.56-48.54-169.19-96.95-253.82-145.38-1.53-.87-3.11-1.65-5.3-2.81v6.61c0,91.45,0,182.91,0,274.36,0,1.33-.07,2.67,.01,4,.11,1.69-.46,2.88-2.05,3.59-.91,.41-1.76,.94-2.64,1.41-86.78,46.91-173.58,93.79-260.3,140.81-3.55,1.93-6.11,1.76-9.58-.03-88.62-45.91-177.28-91.72-266-137.42-3.64-1.87-4.8-4.02-4.79-8.03,.12-80.96,.09-161.92,.09-242.87v-6.64c-2.26,1.21-3.98,2.06-5.64,3.02-74.07,42.76-148.13,85.53-222.19,128.3-.43,.25-.91,.44-1.3,.74-2.64,2.13-5.12,2.11-8.18,.38-6.5-3.7-13.25-6.97-19.9-10.4-85.7-44.3-171.4-88.6-257.1-132.9-1.47-.76-2.92-1.55-4.42-2.34C25.12,497.07,790.3,16.31,818.78,0Z"/></g><g><path class="cls-1" d="M3090.48,1474.08c-7.24,10.25-19,16.36-31.56,16.38h-178.65c-16.41,0-31.04-10.34-36.51-25.81l-26.05-73.59c-5.47-15.47-20.1-25.81-36.51-25.81h-301.17c-16.41,0-31.03,10.35-36.51,25.81l-26.05,73.59c-5.46,15.47-20.09,25.82-36.51,25.81h-178.65c-12.57,0-24.36-6.11-31.62-16.37-7.26-10.27-9.08-23.42-4.89-35.27l320.42-906c5.47-15.47,20.1-25.82,36.51-25.81h215.69c16.41,0,31.03,10.34,36.51,25.81l320.42,906.04c4.17,11.84,2.35,24.96-4.89,35.22Zm-423.62-354.64c12.56,0,24.35-6.11,31.6-16.36,7.26-10.26,9.08-23.4,4.9-35.25l-36.26-102.51c-5.46-15.48-20.09-25.83-36.51-25.83s-31.04,10.35-36.51,25.83l-36.26,102.51c-4.19,11.85-2.37,25,4.89,35.26s19.05,16.37,31.62,16.36h72.52Z"/><path class="cls-1" d="M4368.31,913.31v541.29c0,20.68-16.77,37.44-37.45,37.45h-218.98c-11.82-.01-22.94-5.6-30.01-15.08l-412.86-553.04c-4.99-6.68-13.7-9.41-21.61-6.78-7.91,2.63-13.25,10.03-13.25,18.36v148.71c0,20.68-16.77,37.45-37.45,37.45h-170.96c-20.68,0-37.45-16.77-37.45-37.45V544.47c0-20.68,16.77-37.45,37.45-37.45h220.1c11.82,0,22.95,5.6,30.01,15.08l411.73,551.52c4.99,6.69,13.7,9.43,21.62,6.8,7.92-2.63,13.26-10.04,13.26-18.38v-148.74c0-20.68,16.76-37.44,37.44-37.45h170.96c20.69,0,37.45,16.78,37.45,37.47Z"/><path class="cls-1" d="M4905.37,879.23v238.13c4.7,110.7,81.07,127.25,126.31,127.25h325.53c21.38,0,38.71-17.33,38.71-38.71v-291.33c0-21.38,17.33-38.72,38.71-38.73h168.42c10.27,0,20.12,4.08,27.38,11.34,7.26,7.26,11.34,17.11,11.33,27.38v537.23c0,21.38-17.33,38.71-38.71,38.71h-571.39c-269.34,0-370.14-220.9-372.15-369.37v-241.9c0-263.2,219.91-366.73,367.71-372.1l4.45-.08h571.39c21.38,0,38.71,17.33,38.71,38.71v168.39c0,10.27-4.07,20.12-11.33,27.38-7.26,7.26-17.11,11.34-27.38,11.34h-567.82c-26.69,2.74-52.6,10.65-76.26,23.3-26.51,14.94-53.61,38.88-53.63,103.03Z"/><path class="cls-1" d="M5972.4,507.06h901.46c21.38,0,38.71,17.33,38.71,38.71v168.42c0,21.39-17.34,38.73-38.73,38.73h-901.45c-21.38,0-38.71-17.33-38.71-38.71v-168.43c0-21.38,17.33-38.71,38.71-38.71Zm.01,368.78h901.45c21.38,0,38.71,17.33,38.71,38.71v168.43c0,21.38-17.33,38.71-38.71,38.71h-901.46c-21.38,0-38.71-17.33-38.71-38.71v-168.42c0-21.39,17.34-38.73,38.73-38.73Zm-.01,614.67c-21.38,0-38.71-17.33-38.71-38.71v-168.45c0-21.38,17.33-38.71,38.71-38.71h901.46c21.38,0,38.71,17.33,38.71,38.71v168.45c0,21.38-17.33,38.71-38.71,38.71h-901.46Z"/><path class="cls-1" d="M8175.55,1254.83c7.26,7.26,11.34,17.12,11.34,27.39v168.43c0,21.38-17.33,38.71-38.71,38.71h-906.01c-21.38,0-38.71-17.33-38.71-38.71V545.78c0-21.38,17.33-38.71,38.71-38.71h168.42c21.38,0,38.72,17.33,38.73,38.71v659c0,21.38,17.33,38.71,38.71,38.71h660.14c10.27,0,20.12,4.08,27.39,11.34Z"/><path class="cls-1" d="M10106.83,878.74v241.83c0,266.48-219.9,367.18-367.69,369.92h-585c-21.38,0-38.71-17.33-38.71-38.71v-168.42c0-21.38,17.33-38.72,38.71-38.73h580.4c47.83-2.29,126.43-21.67,126.43-124.06v-243.78c-1.07-25.38-7.55-50.24-19-72.91-13.49-24.94-36.63-50.42-105.56-50.42h-67.75v-.53h-514.42c-21.38,0-38.71-17.34-38.71-38.73v-168.61c0-10.28,4.09-20.14,11.37-27.41,7.28-7.26,17.15-11.33,27.43-11.3l84.39,.19s245.75,.53,497.74,.53c136.25,0,219.49,55.66,265.31,102.35,102.22,104.16,105.35,246.05,105.05,268.79Z"/><path class="cls-1" d="M11345.02,507.06c10.27,0,20.13,4.07,27.4,11.33,7.27,7.26,11.35,17.11,11.36,27.38v575.64c0,147.08-67.35,261.73-189.63,322.86-55.01,27.16-115.29,41.96-176.62,43.37h-250.99c-136.18,0-219.1-55.66-264.68-102.26-100.8-103.13-103.8-243.04-103.54-266.79V545.78c0-21.38,17.33-38.71,38.71-38.71h168.42c21.38,0,38.71,17.33,38.71,38.71v575.86c1.02,24.71,7.29,48.91,18.4,71.01,13.17,24.3,35.83,49.14,103.96,49.14h249.93c25.2-1.52,49.81-8.26,72.26-19.81,24.33-13.41,49.17-35.82,49.17-100.56V545.78c0-21.38,17.33-38.71,38.71-38.71h168.42Z"/><path class="cls-1" d="M11921.39,815.43c0,33.93,11.08,41.76,26.75,49.13,14.26,6.19,29.45,9.97,44.95,11.2h355.71c31.41-1.66,131.83-.73,211.11,70.72,41.54,37.51,91.06,107.38,91.06,227.56,0,232.17-186.52,316.43-311.88,316.43l-624.65,1.07c-10.27,.02-20.12-4.04-27.4-11.29-7.27-7.25-11.37-17.09-11.38-27.36l-.29-168.42c-.02-10.27,4.04-20.12,11.29-27.39,7.25-7.27,17.09-11.37,27.35-11.39l623.57-1.08c67.53-2.8,67.53-48.54,67.53-70.56,0-26.27-5.15-40.49-9.6-44.72-9.32-5.85-20.22-8.69-31.21-8.12l-7.98,1.21-3.52-.74h-359.69c-51.75-1.09-102.71-12.87-149.68-34.61-106.69-50.24-167.87-149.22-167.87-271.58s56.89-218.9,160.18-271.17c45.69-22.81,95.74-35.52,146.78-37.29h636.62c21.38,0,38.71,17.33,38.71,38.71v168.43c0,21.38-17.33,38.72-38.71,38.73h-632.78c-21.85,1.06-64.98,4.14-64.95,62.51Z"/><path class="cls-1" d="M13928.41,545.76v168.43c0,21.38-17.33,38.72-38.71,38.73h-289.07c-21.38,0-38.72,17.33-38.73,38.71v660.14c0,21.38-17.33,38.71-38.71,38.71h-168.42c-21.38,0-38.71-17.33-38.71-38.71V791.62c0-21.38-17.33-38.71-38.71-38.71h-289.1c-21.38,0-38.71-17.34-38.71-38.73v-168.42c0-21.38,17.33-38.71,38.71-38.71h901.46c21.37,0,38.7,17.34,38.7,38.71Z"/></g></g></svg>