<?xml version="1.0" encoding="utf-8"?>
<!-- Generator: Adobe Illustrator 26.5.0, SVG Export Plug-In . SVG Version: 6.00 Build 0)  -->
<svg version="1.1" id="Ebene_1" xmlns="http://www.w3.org/2000/svg" xmlns:xlink="http://www.w3.org/1999/xlink" x="0px" y="0px"
	 viewBox="0 0 971.6 1998.9" style="enable-background:new 0 0 971.6 1998.9;" xml:space="preserve">
<style type="text/css">
	.st0{fill:#CDE438;stroke:#FFFFFF;stroke-width:0.561;stroke-miterlimit:5.6104;}
</style>
<g>
	<path class="st0" d="M468.7,1560.2c0-1.3-0.1-2.6-0.1-3.9c0-193.4,0-386.7,0-580.1v-3.6c46.7-24.2,93.5-48.3,140.6-72.7v413.6
		c1.1-0.5,1.8-0.8,2.5-1.2c49-27.7,98-55.3,147.1-83c1.6-0.9,2.2-1.9,2.2-3.7c-0.1-10.7,0-21.3,0-32v-367c0-0.7,0.1-1.3,0-2
		c-0.4-2.4,0.7-3.6,2.8-4.7c44.1-22.7,88.2-45.5,132.3-68.3c4.6-2.4,9.3-4.8,13.9-7.2c0.8-0.4,1.7-0.8,2.7-1.2v573.1
		c-0.8,0.5-1.7,1-2.6,1.5c-145.8,80-291.6,160.1-437.4,240.1c-1.2,0.7-2.3,1.5-3.4,2.2L468.7,1560.2L468.7,1560.2z"/>
	<path class="st0" d="M0,744.9c18,9.3,36,18.6,53.9,27.9c31.7,16.4,63.3,32.8,95,49.1c2.1,1.1,2.9,2.2,2.9,4.7
		c-0.1,53.1-0.1,106.2-0.1,159.3v3.9c50.9-29.4,101.4-58.5,151.9-87.7c46.8,24.2,93.5,48.3,140.3,72.5v582c-1.1-0.6-2.1-1.1-3-1.6
		c-43.2-25-86.5-50-129.7-75c-2-1.2-4-2.4-6.1-3.5c-1.5-0.7-2-1.8-1.9-3.3c0.1-0.7,0-1.5,0-2.2v-393.6c-1.3,0.7-2.2,1.2-3.1,1.8
		c-43.8,25.6-87.6,51.1-131.3,76.7c-5.1,3-10.1,6-15.2,8.9c-1.4,0.8-2.2,1.6-1.9,3.3c0.1,0.7,0,1.5,0,2.2c0,71,0,142.1,0,213.1v3.7
		c-1.3,0.4-2.1-0.5-2.9-1c-20.5-11.8-40.9-23.6-61.3-35.5c-28.3-16.4-56.6-32.7-84.8-49.1c-0.9-0.5-1.8-0.8-2.7-1.2
		C0,1115,0,929.9,0,744.9L0,744.9z"/>
	<path class="st0" d="M459.4,438.7c151.2,90.6,302.4,181.1,454.2,272c-1.4,0.8-2.2,1.4-3.1,1.8c-19.3,10-38.6,20-57.9,30
		c-30.8,15.9-61.5,31.8-92.2,47.7c-2.1,1.1-3.6,1-5.6-0.2c-47.4-27.2-94.9-54.4-142.4-81.6c-0.9-0.5-1.7-0.9-3-1.6v3.7
		c0,51.3,0,102.6,0,153.9c0,0.7,0,1.5,0,2.2c0.1,0.9-0.3,1.6-1.2,2c-0.5,0.2-1,0.5-1.5,0.8c-48.7,26.3-97.4,52.6-146,79
		c-2,1.1-3.4,1-5.4,0c-49.7-25.8-99.5-51.5-149.2-77.1c-2-1-2.7-2.3-2.7-4.5c0.1-45.4,0.1-90.8,0.1-136.3V727
		c-1.3,0.7-2.2,1.2-3.2,1.7c-41.6,24-83.1,48-124.7,72c-0.2,0.1-0.5,0.2-0.7,0.4c-1.5,1.2-2.9,1.2-4.6,0.2
		c-3.6-2.1-7.4-3.9-11.2-5.8c-48.1-24.9-96.2-49.7-144.2-74.6c-0.8-0.4-1.6-0.9-2.5-1.3C14.1,717.6,443.4,447.9,459.4,438.7z"/>
</g>
</svg>
