<?xml version="1.0" encoding="utf-8"?>
<!-- Generator: Adobe Illustrator 27.0.0, SVG Export Plug-In . SVG Version: 6.00 Build 0)  -->
<svg version="1.1" id="Ebene_1" xmlns="http://www.w3.org/2000/svg" xmlns:xlink="http://www.w3.org/1999/xlink" x="0px" y="0px"
	 viewBox="0 0 40 40" style="enable-background:new 0 0 40 40;" xml:space="preserve">
<style type="text/css">
	.st0{fill:#191919;}
	.st1{fill:#16151A;}
	.st2{fill:#E7FF00;}
	.st3{fill:none;stroke:#E7FF00;stroke-width:0.25;stroke-linejoin:bevel;stroke-miterlimit:10;}
</style>
<rect x="-0.2" y="0.1" class="st0" width="40.7" height="41"/>
<path class="st1" d="M23.7,20.7c1-0.8,1.7-1.8,2-3c0.4-1.2,0.3-2.5-0.1-3.7s-1.2-2.2-2.2-2.9c-1-0.7-2.2-1.1-3.5-1.1
	c-1.2,0-2.5,0.4-3.5,1.1c-1,0.7-1.8,1.7-2.2,2.9s-0.4,2.5-0.1,3.7c0.4,1.2,1.1,2.3,2,3c-1.7,0.7-3.1,1.8-4.2,3.2
	c-1.1,1.4-1.8,3.2-2,5c0,0.1,0,0.3,0,0.4c0,0.1,0.1,0.2,0.2,0.3c0.2,0.2,0.4,0.3,0.7,0.4s0.5,0,0.7-0.2c0.2-0.2,0.3-0.4,0.4-0.7
	c0.2-2,1.2-3.8,2.6-5.1c1.5-1.3,3.4-2,5.3-2s3.9,0.7,5.3,2c1.5,1.3,2.4,3.1,2.6,5.1c0,0.2,0.1,0.5,0.3,0.6c0.2,0.2,0.4,0.3,0.7,0.3
	h0.1c0.3,0,0.5-0.2,0.7-0.4c0.2-0.2,0.2-0.5,0.2-0.7c-0.2-1.8-0.9-3.5-2-5C26.9,22.5,25.4,21.4,23.7,20.7L23.7,20.7z M20,20
	c-0.8,0-1.6-0.2-2.2-0.7c-0.7-0.4-1.2-1.1-1.5-1.8c-0.3-0.7-0.4-1.5-0.2-2.3c0.2-0.8,0.5-1.5,1.1-2c0.6-0.6,1.3-0.9,2-1.1
	c0.8-0.2,1.6-0.1,2.3,0.2c0.7,0.3,1.4,0.8,1.8,1.5c0.4,0.7,0.7,1.4,0.7,2.2c0,1.1-0.4,2.1-1.2,2.8C22.1,19.6,21.1,20,20,20z"/>
<g>
	<path class="st2" d="M23.4,35.8h-6.8l-0.1-0.1l-5-6.7L9.6,17.3l0.6-6.5l0-0.1l3.4-5.1l0.1-0.1L20,4.2l6.3,1.5l0.1,0.1l3.4,5.2
		l0.6,6.5l-1.9,11.8l-4.9,6.7L23.4,35.8z M16.6,35.6h6.7l4.9-6.6l1.9-11.7l-0.6-6.4l-3.4-5L20,4.4l-6.2,1.4l-3.4,5l-0.6,6.4L11.8,29
		L16.6,35.6z"/>
	<g>
		<g>
			<path class="st2" d="M13.7,19.9L13.7,19.9l-1.3-1l0-0.2l0.6-0.9l0.1-0.1h3.2l0.1,0.1l0.7,1l0,0.1l-0.2,0.9l-0.1,0.1L13.7,19.9z
				 M12.7,18.8l1.1,0.9l2.9-0.1l0.2-0.7L16.2,18h-3L12.7,18.8z"/>
			<path class="st2" d="M20.7,26.9h-1.3l-0.1-0.1v-7.3l0.1-0.1h1.3l0.1,0.1v7.3L20.7,26.9z M19.5,26.6h1v-7h-1V26.6z"/>
			<path class="st2" d="M20.7,19.6h-1.3l-0.1-0.1l-1.2-2l0.1-0.2h3.6l0.1,0.2l-1.2,2L20.7,19.6z M19.4,19.3h1.1l1-1.7h-3.2
				L19.4,19.3z"/>
			<polygon class="st2" points="19.3,26.9 17.4,25.7 17.4,25.5 19.1,19.8 17.6,20.9 17.5,20.9 13.1,21.4 12.9,21.3 10.3,18.5 
				10.3,18.4 11.2,16.5 11.3,16.4 17,16.7 18.2,17.3 18.1,17.5 16.9,17 11.4,16.7 10.6,18.4 13.1,21.1 17.5,20.6 19.3,19.3 
				19.5,19.5 17.7,25.5 19.4,26.6 			"/>
			<polygon class="st2" points="11.5,16.6 11.2,16.5 11.8,10.2 14.2,6.6 13.6,5.8 13.8,5.7 14.5,6.5 14.5,6.6 12.1,10.3 			"/>
			<path class="st2" d="M10.4,10.9l-0.2-0.2c0.2-0.4,1.5-0.6,1.8-0.6l0,0.3C11.4,10.5,10.5,10.7,10.4,10.9z"/>
			<path class="st3" d="M16.2,17.8"/>
			<polygon class="st2" points="16.4,17.9 16.1,17.8 16.9,16.8 17.1,16.9 			"/>
			<polygon class="st2" points="17.1,18.9 16.9,18.7 18.1,17.3 18.3,17.5 			"/>
			<polygon class="st2" points="17.4,20.8 16.6,19.8 16.9,19.6 17.6,20.7 			"/>
			
				<rect x="12.1" y="16.1" transform="matrix(0.5884 -0.8085 0.8085 0.5884 -8.8834 16.9505)" class="st2" width="0.3" height="2.2"/>
			<polygon class="st2" points="13.2,21.3 12.9,21.2 13.6,19.7 13.8,19.9 			"/>
			<g>
				<path class="st2" d="M20,30.3l-4.1-0.4l-0.1-0.2l0.6-0.6l0.1,0l2.6-0.2l0.1,0l0.8,0.4l0.8-0.4l0.1,0l2.6,0.2l0.1,0l0.6,0.6
					l-0.1,0.2L20,30.3z M16.2,29.7L20,30l3.7-0.4l-0.4-0.3l-2.5-0.2l-0.8,0.4h-0.1l-0.8-0.4l-2.5,0.2L16.2,29.7z"/>
				<path class="st2" d="M21.7,31.4h-3.4l-0.1,0l-2.4-1.4l0.1-0.3L20,30l4.1-0.4l0.1,0.3L21.7,31.4L21.7,31.4z M18.3,31.1h3.3
					l1.8-1.1L20,30.3L16.5,30L18.3,31.1z"/>
			</g>
			<polygon class="st2" points="14.4,27.3 14.3,27.3 11.9,25.5 11.8,25.4 10.2,18.4 10.4,18.3 12.5,18.6 12.5,18.9 10.6,18.6 
				12.1,25.3 14.4,27 17.4,25.4 17.6,25.7 			"/>
			<polygon class="st2" points="16.7,35.8 16.4,35.8 13.8,30.1 13.8,30 14.2,27.1 14.5,27.2 14.1,30 16.6,35.4 18.5,32.8 18.3,31.3 
				18.6,31.2 18.8,32.8 18.8,32.9 			"/>
			<polygon class="st2" points="13.9,30.1 11.6,29.2 11.7,28.9 14,29.9 			"/>
			<polygon class="st2" points="11.2,26.2 11,26 11.9,25.2 12.1,25.5 			"/>
			<polygon class="st2" points="18.3,22.6 17.4,20.8 17.6,20.7 18.5,22.5 			"/>
			
				<rect x="14.4" y="27.5" transform="matrix(0.3511 -0.9363 0.9363 0.3511 -15.0587 33.6018)" class="st2" width="4.5" height="0.3"/>
		</g>
		<g>
			<path class="st2" d="M26.3,19.9l-3.1-0.1l-0.1-0.1l-0.2-0.9l0-0.1l0.7-1l0.1-0.1h3.2l0.1,0.1l0.6,0.9l0,0.2L26.3,19.9L26.3,19.9z
				 M23.4,19.5l2.9,0.1l1.1-0.9L26.8,18h-3l-0.6,0.9L23.4,19.5z"/>
			<path class="st2" d="M20.7,26.9h-1.3l-0.1-0.1v-7.3l0.1-0.1h1.3l0.1,0.1v7.3L20.7,26.9z M19.5,26.6h1v-7h-1V26.6z"/>
			<path class="st2" d="M20.7,19.6h-1.3l-0.1-0.1l-1.2-2l0.1-0.2h3.7l0.1,0.2l-1.2,2L20.7,19.6z M19.4,19.3h1.1l1-1.7h-3.2
				L19.4,19.3z"/>
			<polygon class="st2" points="20.7,26.9 20.6,26.6 22.3,25.5 20.5,19.5 20.7,19.3 22.5,20.6 26.9,21.1 29.4,18.4 28.6,16.7 
				23.1,17 21.9,17.5 21.8,17.3 23,16.7 28.7,16.4 28.8,16.5 29.7,18.4 29.7,18.5 27.1,21.3 26.9,21.4 22.5,20.9 22.4,20.9 
				20.9,19.8 22.6,25.5 22.6,25.7 			"/>
			<polygon class="st2" points="28.5,16.6 27.9,10.3 25.5,6.6 25.5,6.5 26.2,5.7 26.4,5.8 25.8,6.6 28.2,10.3 28.8,16.5 			"/>
			<path class="st2" d="M29.6,10.9c-0.1-0.2-1-0.4-1.6-0.5l0-0.3c0.2,0,1.5,0.3,1.7,0.6L29.6,10.9z"/>
			<path class="st3" d="M23.8,17.8"/>
			<polygon class="st2" points="23.6,17.9 22.9,16.9 23.1,16.8 23.9,17.8 			"/>
			<polygon class="st2" points="22.9,18.9 21.7,17.5 21.9,17.3 23.1,18.7 			"/>
			<polygon class="st2" points="22.6,20.8 22.4,20.7 23.1,19.6 23.4,19.8 			"/>
			
				<rect x="26.7" y="17.1" transform="matrix(0.8084 -0.5886 0.5886 0.8084 -4.7994 19.6559)" class="st2" width="2.2" height="0.3"/>
			<polygon class="st2" points="26.8,21.3 26.2,19.9 26.4,19.7 27.1,21.2 			"/>
			<g>
				<path class="st2" d="M20,30.3l-4.1-0.4l-0.1-0.2l0.6-0.6l0.1,0l2.6-0.2l0.1,0l0.8,0.4l0.8-0.4l0.1,0l2.6,0.2l0.1,0l0.6,0.6
					l-0.1,0.2L20,30.3z M16.2,29.7L20,30l3.7-0.4l-0.4-0.3l-2.5-0.2l-0.8,0.4h-0.1l-0.8-0.4l-2.5,0.2L16.2,29.7z"/>
				<path class="st2" d="M21.7,31.4h-3.4l-0.1,0l-2.4-1.4l0.1-0.3L20,30l4.1-0.4l0.1,0.3L21.7,31.4L21.7,31.4z M18.3,31.1h3.3
					l1.8-1.1L20,30.3L16.5,30L18.3,31.1z"/>
			</g>
			<polygon class="st2" points="25.6,27.3 22.4,25.7 22.6,25.4 25.6,27 27.9,25.3 29.4,18.6 27.5,18.9 27.5,18.6 29.6,18.3 
				29.8,18.4 28.2,25.4 28.1,25.5 25.7,27.3 			"/>
			<polygon class="st2" points="23.3,35.8 21.2,32.9 21.2,32.8 21.4,31.2 21.7,31.2 21.5,32.8 23.4,35.4 25.9,30 25.5,27.2 
				25.8,27.1 26.2,30 26.2,30.1 23.6,35.8 			"/>
			<rect x="26" y="29.4" transform="matrix(0.9235 -0.3835 0.3835 0.9235 -9.2422 12.6928)" class="st2" width="2.5" height="0.3"/>
			<polygon class="st2" points="28.8,26.2 27.9,25.4 28.1,25.2 29,26 			"/>
			<polygon class="st2" points="21.7,22.6 21.5,22.5 22.4,20.7 22.6,20.8 			"/>
			
				<rect x="23.1" y="25.4" transform="matrix(0.9366 -0.3504 0.3504 0.9366 -8.2168 9.9121)" class="st2" width="0.3" height="4.5"/>
		</g>
		<rect x="17" y="16.7" class="st2" width="6.1" height="0.3"/>
		<rect x="14.3" y="5.9" transform="matrix(0.9851 -0.172 0.172 0.9851 -0.7888 3.0447)" class="st2" width="5.7" height="0.3"/>
		<rect x="19.9" y="4.3" class="st2" width="0.3" height="1.3"/>
		<rect x="22.7" y="3.2" transform="matrix(0.1714 -0.9852 0.9852 0.1714 12.9287 27.519)" class="st2" width="0.3" height="5.7"/>
		<g>
			<polygon class="st2" points="16.7,11.5 11.9,10.4 12,10.1 16.7,11.3 			"/>
			<polygon class="st2" points="16.7,11.5 16.7,11.3 20,11.2 20,11.5 			"/>
			
				<rect x="13.8" y="14" transform="matrix(8.562191e-02 -0.9963 0.9963 8.562191e-02 1.0165 29.3183)" class="st2" width="5.4" height="0.3"/>
		</g>
		<g>
			<polygon class="st2" points="23.4,11.5 23.4,11.3 28.1,10.1 28.2,10.4 			"/>
			<polygon class="st2" points="23.4,11.5 20,11.5 20,11.2 23.4,11.3 			"/>
			
				<rect x="23.5" y="11.4" transform="matrix(0.9963 -8.568087e-02 8.568087e-02 0.9963 -1.1216 2.0769)" class="st2" width="0.3" height="5.4"/>
		</g>
		<polygon class="st2" points="16.9,11.4 16.6,11.4 17.6,5.9 17.9,6 		"/>
		<polygon class="st2" points="23.3,11.4 22.5,6.1 22.8,6.1 23.5,11.4 		"/>
	</g>
</g>
</svg>
