<svg id="Layer_1" data-name="Layer 1" xmlns="http://www.w3.org/2000/svg" viewBox="0 0 7184.92 1000"><defs><style>.cls-1{fill:#5e93c4;}.cls-2{fill:#295692;}.cls-3{fill:#d3e5eb;}.cls-4{fill:#417fb3;}.cls-5{fill:#9accde;}.cls-6{fill:#cee1f1;}.cls-7{fill:#1c3462;}.cls-8{fill:#a7d1e9;}.cls-9{fill:#74a3d1;}.cls-10{fill:#88bcda;}.cls-11{fill:#71a8ca;}.cls-12{fill:#284d7a;}.cls-13{fill:#e9f3f3;}.cls-14{fill:#2e648f;}.cls-15{fill:#cde3e2;}.cls-16{fill:#294a70;}.cls-17{fill:#183762;}.cls-18{fill:#7da0bb;}.cls-19{fill:#5184ad;}.cls-20{fill:#b7bfcd;}.cls-21{fill:#356890;}.cls-22{fill:#203d74;}.cls-23{fill:#406ca6;}.cls-24{fill:#a9bbc9;}.cls-25{fill:#12639a;}.cls-26{fill:#a8d8e9;}.cls-27{fill:#54a2bb;}.cls-28{fill:#29578c;}.cls-29{fill:#f9f9fa;}</style></defs><path class="cls-1" d="M835.51,274.31l2.69,1.19a4.67,4.67,0,0,0,1.54.69c20.85.88,41.7,1.77,62.56,2.56,13.54.51,27.09.79,40.62,1.3,20.86.78,41.72,1.67,62.57,2.51,21,.85,42.09,1.74,63.14,2.54,14.67.55,29.35,1,44,1.46q-23.87,29.16-47.76,58.32-34.68,42.14-69.46,84.18-32.77,39.78-65.53,79.61Q891.48,555.16,853,601.5c-6.39,7.74-12.49,15.78-18.73,23.68-.31,0-.62.06-.93.1a23.38,23.38,0,0,1-3.37-3.3q-30.09-44-60.12-88.05c-2.22-3.24-5-6-7.51-9a38.93,38.93,0,0,0-2.48-5.48q-6.31-9.63-12.89-19.08-13.95-20.08-28-40.1l-.13-2.26q15.27-23.46,30.52-46.91,38.19-59,76.28-118.11C829.34,287.14,832.22,280.56,835.51,274.31Z"/><path class="cls-2" d="M1202.32,262.81a1.25,1.25,0,0,1,.89.05,8.84,8.84,0,0,0,2.7.14q31.62-8.12,63.22-16.38c1.82-.48,3.46-1.86,5.18-2.82l3.34-.34c3.37-.47,6.83-.57,10.09-1.5,5.79-1.65,11.46-3.8,17.18-5.75l2.2-.39,2.29-.81,1.47-.06c9.57-2.19,19.17-4.26,28.7-6.63,3.25-.81,6.36-2.37,9.53-3.58l2.27-.11c6.84-1.47,13.73-2.74,20.51-4.5,3.83-1,7.49-2.81,11.23-4.26l1.13-.13,4.54-1.14,2.2-.34,4.57,0c1.54,13.71,3,27.42,4.61,41.12,2.17,18.68,4.53,37.33,6.61,56s3.94,37.43,5.91,56.15q2.8,26.51,5.64,53c-14.92,14.45-29.8,29-44.79,43.32Q1343.17,493,1312.65,522q-24.89,23.73-49.73,47.48c-6.47-12.36-13-24.69-19.4-37.09-10.47-20.25-20.79-40.59-31.33-60.79-11.59-22.2-23.45-44.2-35-66.42q-24.66-47.44-49-95.1c-4.08-8-7.67-16.29-11.49-24.45a2.9,2.9,0,0,0,.14-1.17l3.31-.41,12.53-3.42,2.2-.39,17.06-4.72,2.26-.13,3.34-1.1,1.14-.42,19.87-4.69a1.2,1.2,0,0,1,.91.05Z"/><path class="cls-3" d="M355,584.74c-2.2-1-4.87-1.5-6.53-3.2-11.84-12.06-23.51-24.33-35.14-36.63-15.21-16.08-30.32-32.27-45.51-48.36-12.32-13-24.71-26-37.06-39q-29-30.56-58-61.16c-4-4.27-7.75-8.9-11.61-13.37,24.93,7.78,49.89,15.46,74.78,23.38,33.81,10.77,67.55,21.73,101.33,32.59q56.63,18.21,113.26,36.37Q528.28,500.26,606.1,525c9.92,3.15,19.93,6,29.9,9,8.78,21.66,17.47,43.37,26.37,65,4.7,11.42,9.75,22.66,14.64,34l-.18,2.52h-2.18l-1.17-.06c-2.66-.82-5.28-2-8-2.42-17.44-2.74-34.9-5.3-52.34-8-15.58-2.4-31.15-4.92-46.73-7.3-15-2.29-30.09-4.39-45.13-6.7-15.4-2.35-30.78-4.84-46.17-7.28q-19.19-3-38.37-6.08c-11.5-1.8-23-3.52-34.52-5.33Q378.59,588.54,355,584.74Z"/><path class="cls-4" d="M103.38,325.83l-12.3-13.26-2.9-2.29L84,305.67l-5.7-6.37-1.93-1.95-3-2.28L67,287.91l-6-5.55L58,279c.05-.9.11-1.79.16-2.69l28.27-5c27.2-4.75,54.41-9.43,81.6-14.25q45.5-8.07,91-16.34,48.79-8.82,97.59-17.78c7.86-1.46,15.65-3.41,23.47-5.13l3.61-.4,1.87.83c-1.2,1.44-2.2,3.25-3.64,4.26q-52.44,36.72-105,73.28-42.44,29.58-84.86,59.17c-10,7-19.84,14.39-29.75,21.6l-1.47.54a4.67,4.67,0,0,0,.3.45c.42-.29.82-.61,1.23-.92,8-2.35,16-4.45,23.88-7.09,32.76-11,65.46-22.19,98.19-33.25q64-21.6,127.92-43.11c25.92-8.71,51.9-17.23,77.79-26,10.92-3.73,21.7-8,32.55-12,5.31,2.52,0,3.67-.75,4.29-34.18,29.13-68.49,58.07-102.72,87.15-14.09,12-28,24.2-42,36.3-13.73-.33-27.46-.77-41.19-1q-49.42-.76-98.85-1.32c-23-.22-46-.17-69-.19-2.8,0-5.6.32-8.4.5l-10-7.87L147,370l-.31-.26-3-2.3L134.14,357l-2.83-2.32-11-12.19-5-4.26q-4.73-5.21-9.44-10.4Z"/><path class="cls-5" d="M159.78,380.81c2.8-.18,5.6-.5,8.4-.5,23,0,46,0,69,.19q49.43.48,98.85,1.32c13.73.21,27.46.65,41.19,1,10.25,3.4,20.47,6.89,30.74,10.18q42.22,13.54,84.48,26.92c12.45,3.94,25,7.61,37.44,11.4,2.25.74,4.45,1.83,6.74,2.15,11.63,1.66,23.28,3.12,34.92,4.64,7,1.07,14.09,2.17,21.14,3.19Q618.32,445,644,448.61c18.43,2.61,36.84,5.32,55.28,7.75,4.52.59,9.13.23,13.7.3l2.55-.22,0,0,1.13.09,2.18,1.53c0,.75.09,1.5.13,2.26l-1.14,0L674,499.68,636,534c-10-3-20-5.8-29.9-9q-77.82-24.75-155.61-49.63Q393.85,457.27,337.23,439c-33.78-10.86-67.52-21.82-101.33-32.59-24.89-7.92-49.85-15.6-74.78-23.38Z"/><path class="cls-4" d="M718.78,458l-2.18-1.53-1.13-.09,0,0a17.93,17.93,0,0,0-2-3.58q-50.76-54.11-101.57-108.15-36.65-39-73.18-78.22c-3.54-3.81-6.48-8.3-9.71-12.48l5-.46a11.39,11.39,0,0,0,3.1,1.23c11.61.9,23.23,1.76,34.85,2.49,9.38.58,18.78.86,28.17,1.46q36.55,2.36,73.1,4.86l1.56-.09,2.12,1.7,2,.23,31,1.25h1.91c6,.24,11.94.42,17.9.74q18.79,1,37.57,2.17a39.09,39.09,0,0,1,5,.93l2.75.48,21,.78,2.74.5,36.65,2c-3.29,6.25-6.17,12.83-9.93,18.69q-38,59.19-76.28,118.11Q734.09,434.61,718.78,458Z"/><path class="cls-6" d="M529.05,254c3.23,4.18,6.17,8.67,9.71,12.48q36.5,39.24,73.18,78.22,50.77,54.09,101.57,108.15a17.93,17.93,0,0,1,2,3.58l-2.55.22q-54.57-14.42-109.14-28.82c-17.18-4.51-34.4-8.82-51.61-13.23-1.63.76-3.45,1.21-4.86,2.33-5.9,4.68-11.68,9.56-17.51,14.36-12.48-3.79-25-7.46-37.44-11.4Q450.14,406.55,407.93,393c-10.27-3.29-20.49-6.78-30.74-10.18,14-12.1,27.94-24.33,42-36.3,34.23-29.08,68.54-58,102.72-87.15.73-.62,6.06-1.77.75-4.29l.09-1.59Z"/><path class="cls-7" d="M1418.33,420.57q-2.82-26.51-5.64-53c-2-18.72-3.82-37.45-5.91-56.15s-4.44-37.34-6.61-56c-1.59-13.7-3.07-27.41-4.61-41.12,9.59-3.07,19.17-6.17,28.76-9.19,35.11-11,70.25-22,105.33-33.07,10.47-3.31,20.81-7.07,31.21-10.62l54.45,40.6a2.12,2.12,0,0,0,0,1c-6.16,7.09-12.25,14.27-18.5,21.27Q1545,282.14,1493.08,340l-2.57,2-2.36,2.63-3.31,3.71-2.36,2.63q-1.65,1.86-3.31,3.71l-2.35,2.64L1473.5,361l-2.35,2.63-3.32,3.71-2.35,2.63-3.31,3.72c-.79.87-1.57,1.75-2.35,2.63l-3.32,3.71-2.35,2.63-3.31,3.72L1419.34,421A2.27,2.27,0,0,0,1418.33,420.57Z"/><path class="cls-8" d="M867.09,890.7c-6.84-7.17-13.84-14.17-20.46-21.58-7.42-8.3-14.37-17.13-21.76-25.48-18.59-21-37.39-41.76-56-62.76-13.12-14.84-26-29.91-39-44.91a26.21,26.21,0,0,1-2.21-3.58c15.38-15.43,30.81-30.79,46.11-46.31,14.2-14.4,28.19-29,42.41-43.42,5.54-5.61,11.44-10.79,17.18-16.17l69.29,61.79q-10.08,58.07-20.15,116.13c-2.85,16.48-5.57,33-8.5,49.44C871.85,866.16,869.42,878.42,867.09,890.7Z"/><path class="cls-9" d="M833.4,626.49c-5.74,5.38-11.64,10.56-17.18,16.17C802,657,788,671.68,773.81,686.08c-15.3,15.52-30.73,30.88-46.11,46.31l-1.91-.66c-6.12-12.26-12.16-24.59-18.38-36.79-10.13-19.88-20.38-39.68-30.58-59.52l.18-2.52.5,0,.49,0c3.46-4.13,7-8.15,10.36-12.42q37-47.73,73.93-95.55c2.52,3,5.29,5.75,7.51,9q30.12,44,60.12,88.05a23.38,23.38,0,0,0,3.37,3.3C833.32,625.69,833.36,626.09,833.4,626.49Z"/><path class="cls-10" d="M867.09,890.7c2.33-12.28,4.76-24.54,6.95-36.85,2.93-16.46,5.65-33,8.5-49.44q10.05-58.06,20.15-116.13l1.83.28c2.55,3.47,4.85,7.25,7.71,10.37C919,706.3,926,713.37,933,720.56l3.4,2.59,17.32,20c0,13.37-.21,26.75,0,40.12,0,2.75,1.36,5.48,2.09,8.22q0,76.38-.12,152.77c0,2.49-1.5,5-2.31,7.48Q926.65,933.48,900,915.21q-14.9-10.23-29.66-20.66C869,893.63,868.16,892,867.09,890.7Z"/><path class="cls-11" d="M522.78,253.47l-.09,1.59c-10.85,4-21.63,8.31-32.55,12-25.89,8.82-51.87,17.34-77.79,26q-64,21.51-127.92,43.11c-32.73,11.06-65.43,22.25-98.19,33.25-7.88,2.64-15.92,4.74-23.88,7.09l-.06-.07c9.91-7.21,19.73-14.58,29.75-21.6q42.36-29.7,84.86-59.17,52.5-36.6,105-73.28c1.44-1,2.44-2.82,3.64-4.26,7.5,1.49,15.07,2.61,22.48,4.53,16.39,4.24,32.69,8.89,49,13.36,3.27.89,6.55,1.72,9.82,2.58l4,1.52q19.95,5.19,39.92,10.37C514.71,251.62,518.75,252.51,522.78,253.47Z"/><path class="cls-12" d="M904.52,688.56l-1.83-.28L833.4,626.49c0-.4-.08-.8-.11-1.21.31,0,.62-.08.94-.1,14-1.43,28-2.68,42-4.34,14.15-1.69,28.25-3.9,42.39-5.69,12.1-1.53,24.24-2.68,36.34-4.2,14.89-1.88,29.74-4.09,44.62-6,15.27-1.91,30.58-3.48,45.85-5.38,18.8-2.35,37.57-4.88,56.36-7.35,12.08-1.58,24.16-3.25,36.25-4.78,11.36-1.43,22.73-2.72,34.1-4.09,11.55-1.4,23.09-2.85,34.64-4.2,13.79-1.62,27.58-3.15,41.37-4.72-4.57,1.7-9.11,3.55-13.73,5.06-23.2,7.55-46.43,15-69.62,22.57-1.82.6-3.39,2.2-5.08,3.33l-6.44,3.82c-2-.21-4.2-1.06-6-.51-9.24,2.78-18.37,6-27.57,8.94q-42,13.35-84,26.62Q985.77,660.17,936,676.14c-9.33,3-18.51,6.57-27.76,9.88l-1.29,1.47Z"/><path class="cls-13" d="M355,584.74q23.64,3.78,47.27,7.54c11.5,1.81,23,3.53,34.52,5.33q19.19,3,38.37,6.08c15.39,2.44,30.77,4.93,46.17,7.28,15,2.31,30.09,4.41,45.13,6.7,15.58,2.38,31.15,4.9,46.73,7.3,17.44,2.67,34.9,5.23,52.34,8,2.71.43,5.33,1.6,8,2.42L488.94,678.83c-4-3.32-7.86-6.92-12.06-9.91-13.81-9.82-27.64-19.62-41.67-29-16.47-11.07-33.21-21.65-49.74-32.62-9.94-6.6-19.71-13.51-29.51-20.35C355.43,586.53,355.29,585.48,355,584.74Z"/><path class="cls-14" d="M380,217.79c-7.82,1.72-15.61,3.67-23.47,5.13q-48.78,9-97.59,17.78-45.48,8.24-91,16.34c-27.19,4.82-54.4,9.5-81.6,14.25l-28.27,5c9.06-17.69,18.21-35.32,27.13-53.1,3.19-6.34,5.81-13,8.68-19.57l2-4.21c2.92.18,5.85.35,8.77.54q18.78,1.26,37.55,2.54c18.12,1.25,36.23,2.56,54.35,3.8,12.9.88,25.8,1.67,38.7,2.54q28,1.89,56,3.82c12.33.84,24.65,1.8,37,2.5C345.55,216.11,362.79,216.91,380,217.79Z"/><path class="cls-15" d="M953.3,951.75c.81-2.5,2.3-5,2.31-7.48q.21-76.39.12-152.77h1.14c2.2,2.64,4.48,5.21,6.59,7.94q13.77,17.93,27.45,35.92,17.69,23.28,35.28,46.65c9.48,12.49,19,24.92,28.49,37.42,4.64,6.13,9.19,12.35,14.79,19.88-7.2,1.23-12.63,2.42-18.11,3.06-16,1.86-32,3.46-48.07,5.24-15.65,1.75-31.28,3.63-46.93,5.34C955.39,953.05,954.33,952.17,953.3,951.75Z"/><path class="cls-6" d="M676.83,635.42c10.2,19.84,20.45,39.64,30.58,59.52,6.22,12.2,12.26,24.53,18.38,36.79q-21.12-3.45-42.23-6.91c-18.9-3.13-37.81-6.19-56.69-9.5-15.84-2.79-31.64-5.89-47.46-8.85a8,8,0,0,1,1.39-1.94c20.42-14.89,40.9-29.67,61.28-44.61,10.94-8,21.72-16.32,32.57-24.5Z"/><path class="cls-16" d="M1615.26,203a2.17,2.17,0,0,1,0-1l1.45-.59.86-1.23v0a8.41,8.41,0,0,0,2.57-1.07q30-26.12,59.83-52.34l2.17.08,1.17,1.68c.69,1.13,1.37,2.27,2.05,3.4l3.62,4.21c.92,1.22,1.85,2.43,2.77,3.64l5,5.82,1.84,3,5.26,6.21c.68.9,1.35,1.81,2,2.72q11.46,15.54,22.92,31.07,16.5,22.32,33,44.6c1.32,1.79,3.28,3.64-.55,4.64l-3.89-1.44-6.33-2.35-2.81-1.14-7.38-2.7-16.68-5.61c-1.34-1.25-2.5-3.05-4-3.67-10.58-4.24-21.23-8.26-31.88-12.31-19.58-7.45-39.16-14.91-58.78-22.24-3.46-1.3-7.1-2-10.66-2.95Z"/><path class="cls-17" d="M908.19,686c9.25-3.31,18.43-6.87,27.76-9.88q49.8-16.08,99.68-31.83,42-13.35,84-26.62c9.2-2.93,18.33-6.16,27.57-8.94,1.84-.55,4,.3,6,.51l-38.89,25L1112,635.4c-11.51,7.52-23,15.11-34.55,22.53-7.65,4.91-15.42,9.59-23.14,14.36l-2.38,1.16-20.08,13c-2.07-.09-4.13-.25-6.19-.25Z"/><path class="cls-18" d="M1761.3,257.77c3.83-1,1.87-2.85.55-4.64q-16.53-22.29-33-44.6-11.49-15.51-22.92-31.08c8.6,2.09,17.19,4.21,25.81,6.24,23.29,5.47,46.7,10.41,69.86,16.5,16.08,4.22,31.84,10,47.72,15.17,1.18.39,2.09,1.84,3.13,2.8a1.54,1.54,0,0,1-.89.18l-2.81,1.58-5.11,2.24-2.82,1.73-2.19,1.34-2.35,1-5.11,2.25q-1.41.76-2.82,1.56l-9.66,4.76-2.81,1.58-5.13,2.2-2.81,1.57-7.4,3.51-2.79,1.59-5.13,2.23-2.81,1.59-9.66,4.77-2.81,1.55-7.41,3.48-3.8,1.07Z"/><path class="cls-19" d="M578.4,757.22q.09,3,.21,5.92c-2.56,8.52-1.7,16.81,1.32,25,3.61,9.84,7.17,19.71,10.84,29.53q11.84,31.75,23.74,63.5a24.11,24.11,0,0,1,.63,4.19c-1.78-.43-3.08-.47-4.13-1.06-3.87-2.17-7.47-5.1-11.51-6.7-18.83-7.43-28.38-26.11-40.58-41.54-10.07-12.75-19.84-25.82-29.66-38.83-2.53-3.34-4.77-7-7.14-10.43l.54-1.55c1.77-1.84,3.83-3.44,5.27-5.56,13.84-20.32,27.55-40.75,41.39-61.07,1.51-2.22,3.65-3.89,5.49-5.82l2.43,10.2,0,6.38C575.34,738.75,575.26,748.07,578.4,757.22ZM612.3,881.6l.48.29-.47-.3-29.65-81-1.66.52a18.2,18.2,0,0,0-.41,2.91q.54,24.6,1.13,49.2c.21,8.88,3,15.29,11.29,18.4C599.69,874.14,605.89,878.22,612.3,881.6Z"/><path class="cls-20" d="M577.24,723l-2.43-10.2c1-4.39-.7-6.24-4.53-7.46-21.75-6.92-43.41-14.17-65.11-21.25-4.58-1.5-9.21-2.79-14.32-4.32l4.14,18q-3-9.44-6.05-18.87l184.54-43.47,1.17.06c-10.85,8.18-21.63,16.47-32.57,24.5-20.38,14.94-40.86,29.72-61.28,44.61a8,8,0,0,0-1.39,1.94c-.68,3.54-1.46,7.07-2,10.65A49.22,49.22,0,0,0,577.24,723Z"/><path class="cls-21" d="M495,697.7l-4.14-18c5.11,1.53,9.74,2.82,14.32,4.32,21.7,7.08,43.36,14.33,65.11,21.25,3.83,1.22,5.5,3.07,4.53,7.46-1.84,1.93-4,3.6-5.49,5.82-13.84,20.32-27.55,40.75-41.39,61.07-1.44,2.12-3.5,3.72-5.27,5.56-.52-.61-1-1.23-1.55-1.85-.4-1-.81-2-1.22-3l-1-4.58c-.4-1-.79-2-1.18-3-.74-2.79-1.48-5.59-2.23-8.38l-1.2-3q-5.07-16.89-10.13-33.78l-1.18-3-1.08-4.58-1.2-3c-.73-2.8-1.47-5.6-2.2-8.39l-1.22-3-1.05-4.59C495.78,699.83,495.38,698.77,495,697.7Z"/><path class="cls-22" d="M673.27,263.59q-36.56-2.44-73.1-4.86c-9.39-.6-18.79-.88-28.17-1.46-11.62-.73-23.24-1.59-34.85-2.49a11.39,11.39,0,0,1-3.1-1.23l9.77-3.23,2.87-.65,18.63-5.76,2.9-.56,31.12-9.54,2.89-.63,18.65-5.69,2.89-.65c8.42-2.68,16.8-5.56,25.31-7.83,1.31-.36,3.9,1.65,4.75,3.3,6.79,13.2,13.31,26.58,19.91,39.9Z"/><path class="cls-23" d="M1616.76,201.4l-1.45.59-54.45-40.58c0-.66,0-1.31.05-2,7.87-16.28,15.7-32.59,23.63-48.83q20.43-41.85,41-83.6c2.84-5.79,5.89-11.45,8.85-17.17l1.84.27c1.68,6.27,3.84,12.44,5,18.83,5.85,33,20.21,62.3,31.49,93,3.07,8.36,6.33,16.62,9.51,24.93l-2.17-.08c-6.68-17.42-13.59-34.73-20-52.3-5.78-15.94-11.27-32-16.32-48.27-3.34-10.76-5.66-21.92-8.71-34-24.28,49.43-48,97.83-72.45,147.53l67.51-13.19c-1.35,5.45-2.46,9.66-3.44,13.91q-4.55,19.83-9,39.69v0Z"/><path class="cls-24" d="M1852.41,218.16c-1-1-2-2.41-3.13-2.8-15.88-5.2-31.64-11-47.72-15.17-23.16-6.09-46.57-11-69.86-16.5-8.62-2-17.21-4.15-25.81-6.24-.67-.9-1.34-1.81-2-2.71q24.75,6,49.48,12.11c12.64,3.12,25.25,6.42,37.93,9.35a15,15,0,0,0,7.19-.58c25.87-7.28,51.7-14.71,77.56-22,1.59-.45,3.3-.34,6.7-.65-7.72,12.74-14.27,23.95-21.24,34.83C1859,211.66,1855.46,214.72,1852.41,218.16Z"/><path class="cls-23" d="M1159.69,605.44c1.69-1.13,3.26-2.73,5.08-3.33,23.19-7.6,46.42-15,69.62-22.57,4.62-1.51,9.16-3.36,13.73-5.06h0l3.35-1.25,11.44-3.76q24.86-23.75,49.73-47.49,30.43-29,60.89-58.09c15-14.36,29.87-28.87,44.79-43.32a2.15,2.15,0,0,1,1,.45c-6.89,7.08-13.66,14.32-20.71,21.2-12.48,12.19-25.11,24.18-37.7,36.23q-26.17,25.07-52.38,50.09c-11.44,11-23.2,21.56-34.14,33.12-7.52,8-16.2,12.14-25.88,15.17C1218.86,586.16,1189.3,595.88,1159.69,605.44Z"/><path class="cls-19" d="M1116.8,284.45a2.9,2.9,0,0,1-.14,1.17l-4,.94c-14.67-.48-29.35-.91-44-1.46-21.05-.8-42.09-1.69-63.14-2.54-20.85-.84-41.71-1.73-62.57-2.51-13.53-.51-27.08-.79-40.62-1.3-20.86-.79-41.71-1.68-62.56-2.56a4.67,4.67,0,0,1-1.54-.69c10.69-.12,21.38-.28,32.06-.35,1.29,0,2.58.65,3.88.69,16.2.46,32.4.86,48.6,1.29s32.4.78,48.59,1.34c20.32.72,40.62,1.64,60.94,2.43,22.38.88,44.76,1.69,67.14,2.58C1105.21,283.71,1111,284.12,1116.8,284.45Z"/><path class="cls-19" d="M1560.91,159.44c0,.66,0,1.31-.05,2-10.4,3.54-20.74,7.3-31.21,10.61-35.08,11.1-70.22,22-105.33,33.07-9.59,3-19.17,6.12-28.76,9.19l-4.57,0c9.24-3.24,18.42-6.66,27.72-9.66,18.74-6,37.55-11.87,56.34-17.74q39-12.17,77.92-24.3C1555.66,161.72,1558.26,160.49,1560.91,159.44Z"/><path class="cls-23" d="M908.19,686l117.47.15c2.06,0,4.12.16,6.19.25-1.51.56-3,1.61-4.52,1.61q-58.56.13-117.12.05a20,20,0,0,1-3.31-.59Z"/><path class="cls-18" d="M1618.85,203.36c3.56,1,7.2,1.65,10.66,2.95,19.62,7.33,39.2,14.79,58.78,22.24,10.65,4,21.3,8.07,31.88,12.31,1.54.62,2.7,2.42,4,3.67q-50.28-19.18-100.55-38.39A34.8,34.8,0,0,1,1618.85,203.36Z"/><path class="cls-19" d="M1274.31,243.8c-1.72,1-3.36,2.34-5.18,2.82q-31.59,8.32-63.22,16.38a8.84,8.84,0,0,1-2.7-.14c7.28-2.38,14.5-5.05,21.87-7.07,14.89-4.07,29.84-7.81,44.79-11.62A25.18,25.18,0,0,1,1274.31,243.8Z"/><path class="cls-6" d="M956.87,791.49h-1.14c-.73-2.74-2.05-5.47-2.09-8.22-.18-13.37,0-26.75,0-40.12.68,1.92,1.9,3.82,2,5.76.21,9,0,18,.14,27C955.87,781.14,956.48,786.31,956.87,791.49Z"/><path class="cls-19" d="M1349.11,224.74c-3.17,1.21-6.28,2.77-9.53,3.58-9.53,2.37-19.13,4.44-28.7,6.63,2.74-1.1,5.41-2.53,8.22-3.23C1329.08,229.26,1339.11,227,1349.11,224.74Z"/><path class="cls-19" d="M1383.12,215.87c-3.74,1.45-7.4,3.26-11.23,4.26-6.78,1.76-13.67,3-20.51,4.5Z"/><path class="cls-19" d="M1304.92,236.21c-5.72,1.95-11.39,4.1-17.18,5.75-3.26.93-6.72,1-10.09,1.5Z"/><path class="cls-20" d="M504.1,727.54q5.07,16.89,10.13,33.78Q509.16,744.43,504.1,727.54Z"/><path class="cls-20" d="M578.4,757.22c-3.14-9.15-3.06-18.47-1.13-27.88Q577.84,743.28,578.4,757.22Z"/><path class="cls-19" d="M1202.32,262.81l-22.9,6.41Z"/><path class="cls-19" d="M1178.51,269.17l-19.87,4.69Z"/><path class="cls-20" d="M579.93,788.1c-3-8.15-3.88-16.44-1.32-25Z"/><path class="cls-19" d="M1151.9,275.51l-17.06,4.72Z"/><path class="cls-19" d="M1132.64,280.62,1120.11,284Z"/><path class="cls-18" d="M61,282.36l6,5.55Z"/><path class="cls-18" d="M78.31,299.3l5.7,6.37Z"/><path class="cls-20" d="M498.44,708.51c.73,2.79,1.47,5.59,2.2,8.39C499.91,714.1,499.17,711.3,498.44,708.51Z"/><path class="cls-18" d="M1740.89,250.14l7.38,2.7Z"/><path class="cls-20" d="M515.43,764.35c.75,2.79,1.49,5.59,2.23,8.38Z"/><path class="cls-18" d="M1751.08,254l6.33,2.35Z"/><path class="cls-18" d="M115.29,338.22l5,4.26Z"/><path class="cls-19" d="M1388.79,214.6l-4.54,1.14Z"/><path class="cls-23" d="M1691.8,159.75c-.92-1.21-1.85-2.42-2.77-3.64C1690,157.33,1690.88,158.54,1691.8,159.75Z"/><path class="cls-18" d="M1456.5,380.05l3.32-3.71Z"/><path class="cls-18" d="M1462.17,373.71l3.31-3.72Z"/><path class="cls-18" d="M1484.84,348.33l3.31-3.71Z"/><path class="cls-18" d="M1479.17,354.67q1.66-1.85,3.31-3.71Z"/><path class="cls-18" d="M1473.5,361c1.11-1.24,2.21-2.48,3.32-3.71C1475.71,358.54,1474.61,359.78,1473.5,361Z"/><path class="cls-18" d="M1467.83,367.36l3.32-3.71Z"/><path class="cls-18" d="M1450.84,386.4l3.31-3.72Z"/><path class="cls-20" d="M501.84,719.93l1.08,4.58Z"/><path class="cls-19" d="M798.86,272.29l-2.74-.5Z"/><path class="cls-20" d="M496.17,700.9l1.05,4.59Z"/><path class="cls-24" d="M1766.09,260l3.8-1.07Z"/><path class="cls-19" d="M775.07,271l-2.75-.48Z"/><path class="cls-20" d="M518.84,775.77l1,4.58Z"/><path class="cls-6" d="M470.79,240.21l-4-1.52Z"/><path class="cls-23" d="M1685.41,151.9c-.68-1.13-1.36-2.27-2.05-3.4Z"/><path class="cls-6" d="M936.35,723.15l-3.4-2.59Z"/><path class="cls-23" d="M1698.61,168.53l-1.84-3Z"/><path class="cls-18" d="M73.39,295.07l3,2.28Z"/><path class="cls-18" d="M88.18,310.28l2.9,2.29Z"/><path class="cls-18" d="M131.31,354.67l2.83,2.32Z"/><path class="cls-18" d="M143.68,367.39l3,2.3Z"/><path class="cls-18" d="M147,370l2.77,3Z"/><path class="cls-19" d="M1157.5,274.28l-3.34,1.1Z"/><path class="cls-24" d="M1815.84,236.42l2.81-1.58Z"/><path class="cls-24" d="M1777.3,255.43l2.81-1.55Z"/><path class="cls-19" d="M1309.41,235l-2.29.81Z"/><path class="cls-4" d="M602.23,233.18l-2.89.63Z"/><path class="cls-23" d="M1112,635.4l2.36-1.18Z"/><path class="cls-4" d="M546.69,249.67l-2.87.65Z"/><path class="cls-24" d="M1789.77,249.11l2.81-1.59Z"/><path class="cls-23" d="M1051.93,673.45l2.38-1.16Z"/><path class="cls-24" d="M1828.31,230.08q1.41-.79,2.82-1.56Z"/><path class="cls-4" d="M623.77,226.84l-2.89.65Z"/><path class="cls-4" d="M568.22,243.35l-2.9.56Z"/><path class="cls-24" d="M1836.24,226.27l2.35-1Z"/><path class="cls-24" d="M1840.78,223.89l2.82-1.73Z"/><path class="cls-24" d="M1848.71,219.92l2.81-1.58Z"/><path class="cls-24" d="M1807.9,240.19l2.81-1.57Z"/><path class="cls-24" d="M1797.71,245.29l2.79-1.59Z"/><path class="cls-18" d="M1490.51,342l2.57-2Z"/><path class="cls-19" d="M711.86,266.69h0Z"/><path class="cls-19" d="M679,265.43l-2-.23Z"/><path class="cls-20" d="M521.11,783.36c.52.62,1,1.24,1.55,1.85l-.54,1.55C521.78,785.63,521.45,784.49,521.11,783.36Z"/><path class="cls-18" d="M103.38,325.83l2.47,2Z"/><path class="cls-1" d="M673.27,263.59l.47-1.38,1.09,1.29Z"/><path class="cls-25" d="M1112.65,286.56l4-.94c3.82,8.16,7.41,16.46,11.49,24.45q24.38,47.64,49,95.1c11.56,22.22,23.42,44.22,35,66.42,10.54,20.2,20.86,40.54,31.33,60.79,6.41,12.4,12.93,24.73,19.4,37.09l-11.44,3.77-3.35,1.25h0c-13.79,1.57-27.58,3.1-41.37,4.72-11.55,1.35-23.09,2.8-34.64,4.2-11.37,1.37-22.74,2.66-34.1,4.09-12.09,1.53-24.17,3.2-36.25,4.78-18.79,2.47-37.56,5-56.36,7.35-15.27,1.9-30.58,3.47-45.85,5.38-14.88,1.86-29.73,4.07-44.62,6-12.1,1.52-24.24,2.67-36.34,4.2-14.14,1.79-28.24,4-42.39,5.69-14,1.66-28,2.91-42,4.34,6.23-7.9,12.33-15.94,18.72-23.68Q891.36,555,929.9,508.67q32.85-39.72,65.53-79.61,34.71-42.1,69.46-84.18Q1088.84,315.8,1112.65,286.56Z"/><path class="cls-26" d="M762.29,524.94q-37,47.79-73.93,95.55c-3.31,4.27-6.9,8.29-10.36,12.42.26-1.86.37-3.76.8-5.57q14.67-62.15,29.38-124.29c3.34-14.2,6.4-28.49,9.59-42.74l1.14,0q14,20,28,40.1,6.55,9.45,12.89,19.08A38.93,38.93,0,0,1,762.29,524.94Z"/><path class="cls-10" d="M717.77,460.31c-3.19,14.25-6.25,28.54-9.59,42.74q-14.61,62.18-29.38,124.29c-.43,1.81-.54,3.71-.8,5.57l-.49,0-.5,0c-4.89-11.32-9.94-22.56-14.64-34-8.9-21.6-17.59-43.31-26.37-65l38-34.27Z"/><path class="cls-11" d="M162.36,376.6c-.41.31-.81.63-1.23.92a4.67,4.67,0,0,1-.3-.45l1.47-.54Z"/><path class="cls-27" d="M552.22,414.61c17.21,4.41,34.43,8.72,51.61,13.23Q658.42,442.17,713,456.66c-4.57-.07-9.18.29-13.7-.3-18.44-2.43-36.85-5.14-55.28-7.75q-25.66-3.66-51.34-7.33c-7-1-14.09-2.12-21.14-3.19a64.57,64.57,0,0,0-3.71-5.37C562.66,426.63,557.42,420.64,552.22,414.61Z"/><path class="cls-2" d="M552.22,414.61c5.2,6,10.44,12,15.58,18.11a64.57,64.57,0,0,1,3.71,5.37c-11.64-1.52-23.29-3-34.92-4.64-2.29-.32-4.49-1.41-6.74-2.15,5.83-4.8,11.61-9.68,17.51-14.36C548.77,415.82,550.59,415.37,552.22,414.61Z"/><path class="cls-6" d="M715.47,456.4l1.13.09Z"/><path class="cls-28" d="M1617.62,200.15q4.5-19.85,9-39.69c1-4.25,2.09-8.46,3.44-13.91l-67.51,13.19C1587,110,1610.74,61.64,1635,12.21c3,12,5.37,23.2,8.71,34,5,16.24,10.54,32.33,16.32,48.27,6.38,17.57,13.29,34.88,20,52.3q-29.91,26.19-59.83,52.34A8.41,8.41,0,0,1,1617.62,200.15Z"/><path class="cls-28" d="M1616.76,201.4l.86-1.23Z"/><path class="cls-4" d="M612.3,881.6c-6.41-3.38-12.61-7.46-19.29-10-8.3-3.11-11.08-9.52-11.29-18.4q-.57-24.6-1.13-49.2a18.2,18.2,0,0,1,.41-2.91l1.66-.52,29.65,81Z"/><path class="cls-4" d="M612.31,881.59l.47.3-.48-.29Z"/><path class="cls-12" d="M1248.13,574.49l3.35-1.25Z"/><path class="cls-29" d="M2333,343.06v67.66l389.29-1q27.45,0,40.21-13.24t12.74-55.4q0-33.33-5.88-48.54t-16.67-19.12q-10.8-3.9-31.38-3.92H2188.83V139.1h592.28q57.84,0,97.57,29.42t39.71,100V400.92q0,30.4-11.77,47.07,60.8,27.47,60.8,92.17V713.73Q2964.48,825.51,2838,825.51H2188.83V343.06Zm479.51,338.31q12.74-13.73,12.74-58.84,0-47.07-13.23-64.23t-41.68-17.16H2333v154H2771.3Q2799.74,695.1,2812.49,681.37Z"/><path class="cls-29" d="M3075.28,139.1h143.16v556h595.22V825.51H3075.28Z"/><path class="cls-29" d="M3921.52,139.1h739.36V269.52H3921.52Zm144.14,204v67.66H4296.1q132.39,0,259.86-1v131.4h-490.3v154h595.22V825.51H3921.52V343.06Z"/><path class="cls-29" d="M4811.89,793.65q-41.18-31.86-43.14-93.65V139.1h144.14V641.16q2,30.4,12.75,41.19T4958,695.1h401.06q19.6,0,29.42-3.44T5404.17,675q5.88-13.23,5.88-42.65V139.1h137.29v557q0,70.59-40.21,100t-97.08,29.41H4911.91Q4853.08,825.51,4811.89,793.65Z"/><path class="cls-29" d="M5655.19,139.1h738.39V269.52H5655.19Zm0,204h143.17v67.66h180.43q98,0,209.85-1l1,131.4H5798.36V825.51H5655.19Z"/><path class="cls-29" d="M6501.43,139.1h144.15V825.51H6501.43Z"/></svg>