<?xml version="1.0" standalone="no"?>
<!DOCTYPE svg PUBLIC "-//W3C//DTD SVG 20010904//EN"
 "http://www.w3.org/TR/2001/REC-SVG-20010904/DTD/svg10.dtd">
<svg version="1.0" xmlns="http://www.w3.org/2000/svg"
 width="658.000000pt" height="658.000000pt" viewBox="0 0 658.000000 658.000000"
 preserveAspectRatio="xMidYMid meet">
<metadata>
Created by potrace 1.14, written by Peter Selinger 2001-2017
</metadata>
<g transform="translate(0.000000,658.000000) scale(0.100000,-0.100000)"
fill="#000000" stroke="none">
<path d="M3167 6503 c-8 -7 -125 -18 -317 -28 -110 -6 -187 -23 -219 -46 -15
-10 -44 -21 -66 -23 -151 -17 -309 -54 -351 -82 -36 -24 -81 -45 -113 -51 -14
-2 -29 -7 -35 -11 -6 -3 -17 -7 -26 -7 -49 -5 -90 -22 -129 -54 -24 -20 -46
-35 -48 -33 -7 6 -73 -11 -73 -19 0 -5 -9 -9 -20 -9 -11 0 -20 -4 -20 -9 0
-14 -67 -50 -116 -63 -24 -7 -44 -16 -44 -20 0 -4 -7 -8 -15 -8 -8 0 -15 -6
-15 -12 0 -13 -61 -55 -123 -86 -19 -9 -60 -41 -92 -69 -32 -29 -64 -53 -71
-53 -6 0 -17 -7 -24 -15 -7 -8 -16 -12 -21 -10 -4 3 -11 -1 -16 -8 -4 -7 -25
-23 -45 -35 -45 -28 -150 -140 -143 -153 4 -5 0 -9 -7 -9 -27 -1 -137 -120
-130 -142 2 -7 -163 -161 -179 -166 -5 -2 -9 -10 -9 -18 0 -8 -4 -14 -10 -14
-5 0 -10 -7 -10 -15 0 -22 -20 -52 -62 -96 -22 -22 -35 -44 -32 -52 3 -8 -2
-17 -10 -20 -9 -4 -16 -13 -16 -22 0 -8 -6 -15 -13 -15 -18 0 -41 -27 -57 -70
-8 -19 -30 -60 -49 -90 -20 -30 -36 -58 -36 -62 0 -3 -3 -10 -7 -14 -5 -4 -8
-20 -8 -36 0 -15 -4 -28 -10 -28 -5 0 -10 -8 -10 -18 0 -10 -11 -29 -25 -42
-26 -24 -72 -109 -78 -145 -4 -22 -11 -40 -38 -102 -11 -23 -20 -51 -22 -63
-2 -11 -8 -25 -14 -31 -6 -6 -9 -18 -6 -25 3 -8 1 -14 -5 -14 -10 0 -49 -113
-54 -160 -2 -14 -7 -30 -10 -36 -13 -20 -48 -164 -48 -196 0 -18 -4 -48 -9
-65 -5 -18 -11 -54 -12 -80 -1 -27 -6 -53 -10 -58 -8 -11 -20 -239 -20 -405
-1 -199 30 -496 56 -536 11 -17 15 -50 15 -117 0 -74 4 -99 17 -118 30 -41 39
-62 42 -103 1 -21 11 -66 22 -99 10 -33 19 -66 19 -75 0 -8 10 -29 23 -46 13
-17 38 -78 56 -135 24 -72 39 -105 51 -108 11 -3 23 -23 31 -51 7 -26 15 -49
19 -52 3 -3 12 -25 19 -49 7 -24 20 -45 29 -48 17 -4 42 -46 42 -70 0 -7 5
-13 10 -13 6 0 10 -8 10 -17 0 -9 18 -34 40 -54 27 -25 44 -52 52 -83 7 -25
16 -46 20 -46 4 0 8 -6 8 -14 0 -7 18 -28 40 -46 22 -18 40 -39 40 -46 0 -8 5
-14 10 -14 6 0 10 -10 10 -22 0 -14 30 -50 91 -107 107 -101 277 -270 369
-368 36 -39 80 -76 98 -84 17 -8 32 -17 32 -21 0 -5 6 -8 13 -8 6 0 30 -18 52
-40 22 -21 46 -39 53 -40 6 0 12 -4 12 -10 0 -5 7 -10 15 -10 8 0 15 -4 15
-10 0 -5 8 -10 18 -10 10 0 38 -18 62 -40 24 -22 52 -40 62 -40 10 0 18 -4 18
-10 0 -5 8 -10 18 -10 10 0 23 -5 30 -12 7 -7 12 -8 12 -4 0 4 19 -9 42 -28
23 -20 50 -36 60 -36 10 0 18 -4 18 -9 0 -7 46 -21 77 -22 5 -1 26 -15 48 -33
26 -21 77 -44 142 -65 56 -18 107 -38 113 -46 6 -7 31 -16 55 -20 25 -3 45 -9
45 -13 0 -4 19 -13 42 -20 39 -13 75 -20 195 -41 24 -4 51 -15 60 -23 10 -8
43 -18 73 -22 30 -4 80 -11 110 -16 190 -32 225 -35 530 -33 304 2 475 11 590
33 30 6 79 13 109 17 32 3 68 15 89 30 21 14 43 21 54 17 10 -3 24 -2 31 3 7
5 28 10 47 11 51 4 203 54 217 72 7 8 13 11 13 6 0 -5 7 -2 16 5 9 7 21 14 28
16 79 17 129 34 157 54 48 34 66 43 136 65 35 10 63 22 63 27 0 4 7 7 15 7 14
0 37 16 71 48 8 8 21 15 30 16 9 1 19 8 23 15 4 7 12 11 17 9 5 -1 29 11 53
27 84 57 96 64 114 64 9 1 17 6 17 11 0 6 5 10 11 10 15 0 59 51 59 68 0 6 8
12 19 12 10 0 24 7 31 15 6 8 22 17 33 21 12 4 38 23 58 43 20 20 48 43 64 51
16 8 51 39 79 69 90 95 121 126 149 146 38 28 127 139 127 159 0 9 4 15 8 13
14 -4 68 48 83 81 7 18 19 32 26 32 15 0 83 80 83 98 0 8 23 48 50 88 28 41
47 74 44 74 -4 0 0 8 9 18 8 9 15 21 15 26 0 4 16 27 37 50 21 24 44 63 52 87
9 24 23 49 33 56 10 7 24 30 31 51 6 20 15 42 19 47 7 10 37 105 44 140 8 37
35 93 48 98 8 2 26 59 43 128 16 68 37 135 47 148 10 13 18 40 18 60 0 20 7
61 16 91 22 78 36 215 39 365 2 72 8 143 14 158 14 36 14 237 0 274 -6 15 -12
89 -14 163 -2 144 -15 251 -40 340 -8 30 -15 70 -15 89 0 19 -7 42 -15 51 -15
17 -45 115 -45 149 0 34 -41 146 -68 186 -14 22 -27 42 -27 45 -12 79 -18 100
-26 100 -5 0 -9 9 -9 20 0 11 -4 20 -10 20 -5 0 -21 23 -35 50 -14 28 -22 50
-18 50 4 0 2 5 -5 12 -7 7 -12 20 -12 30 0 10 -4 18 -10 18 -5 0 -10 6 -10 14
0 8 -16 31 -35 51 -19 21 -37 53 -41 71 -3 19 -10 37 -15 40 -5 3 -9 14 -9 25
0 10 -4 19 -9 19 -5 0 -31 33 -59 74 -28 40 -66 91 -84 113 -18 21 -41 57 -51
79 -10 21 -38 54 -62 71 -24 18 -52 49 -61 69 -18 38 -211 234 -230 234 -7 0
-14 7 -18 15 -3 8 -11 15 -19 15 -21 0 -113 101 -147 162 -32 59 -37 62 -106
73 -30 5 -44 13 -52 30 -6 14 -29 30 -59 41 -26 10 -72 37 -101 61 -30 24 -70
50 -90 60 -20 9 -53 29 -72 43 -51 40 -95 60 -128 60 -16 0 -35 7 -42 15 -7 8
-32 24 -56 35 -24 10 -44 23 -44 28 0 5 -27 15 -60 22 -33 7 -60 16 -60 20 0
5 -19 11 -41 15 -23 4 -69 22 -103 40 -55 29 -241 75 -359 88 -16 2 -32 9 -36
16 -12 19 -232 48 -466 62 -88 5 -194 12 -235 15 -41 3 -79 2 -83 -3z m911
-1364 c56 -11 193 -75 252 -117 19 -14 78 -69 130 -121 190 -190 248 -297 291
-530 33 -183 25 -304 -31 -496 -12 -40 -65 -147 -98 -196 -9 -15 -26 -41 -37
-58 -10 -17 -23 -31 -27 -31 -16 0 -7 -38 13 -56 48 -42 169 -203 206 -273 74
-138 104 -209 122 -296 6 -27 18 -84 28 -125 24 -104 23 -367 -1 -465 -46
-182 -84 -264 -197 -420 -115 -159 -250 -296 -391 -397 -24 -17 -45 -34 -48
-38 -3 -4 -39 -25 -80 -46 l-75 -39 -1000 -5 c-550 -3 -1005 -4 -1012 -2 -6 2
-15 11 -20 20 -4 9 -9 841 -11 1848 -2 1531 0 1833 11 1843 25 20 1874 21
1975 0z"/>
<path d="M2410 3385 c0 -762 3 -1385 6 -1385 5 0 209 172 229 194 6 6 44 40
85 76 41 35 117 102 168 149 l92 83 0 1134 0 1134 -290 0 -290 0 0 -1385z"/>
<path d="M3290 4758 c0 -7 -1 -457 -3 -1001 -2 -872 0 -987 13 -987 8 0 45 29
81 63 36 34 153 139 259 232 107 94 203 179 214 190 12 11 64 56 116 100 194
164 370 352 370 396 0 8 4 19 9 25 4 5 16 34 25 64 9 30 21 64 25 75 5 11 16
63 26 116 18 96 17 166 -4 260 -11 52 -59 162 -72 167 -5 2 -9 9 -9 16 0 22
-60 84 -132 138 -97 71 -135 89 -324 148 -48 16 -594 13 -594 -2z"/>
<path d="M4305 3194 c-49 -42 -106 -90 -126 -107 -86 -75 -154 -133 -173 -147
-12 -8 -25 -19 -31 -26 -10 -11 -120 -108 -235 -204 -65 -55 -118 -100 -185
-160 -28 -25 -78 -67 -110 -95 -56 -48 -183 -158 -310 -271 -33 -29 -85 -74
-115 -101 -30 -26 -89 -79 -130 -118 -42 -38 -100 -92 -129 -118 -29 -27 -51
-50 -48 -53 2 -3 281 -5 620 -4 694 1 623 -8 762 88 244 169 307 236 403 434
105 216 134 394 97 584 -17 88 -55 217 -77 258 -27 51 -84 115 -103 115 -11 0
-60 -34 -110 -75z"/>
</g>
</svg>
