<svg id="Layer_1" data-name="Layer 1" xmlns="http://www.w3.org/2000/svg" viewBox="0 0 1046.23 1044.01"><defs><style>.cls-1{fill:#5e93c4;}.cls-2{fill:#fff;}</style></defs><g id="Check_mark" data-name="Check mark"><path class="cls-1" d="M969.33,471.9a105.23,105.23,0,0,0-46.56-157.16,105.22,105.22,0,0,0-99.81-130A105.17,105.17,0,0,0,683.23,99.08,105.21,105.21,0,0,0,522.06,69.21,105.21,105.21,0,0,0,354.31,114a105.21,105.21,0,0,0-150.25,87A105.19,105.19,0,0,0,111.23,336,105.22,105.22,0,0,0,73,495.4a105.22,105.22,0,0,0,21.4,162.51A105.23,105.23,0,0,0,172.61,802,105.18,105.18,0,0,0,297.23,908.4a105.22,105.22,0,0,0,154.51,54.71,105.21,105.21,0,0,0,163.85-4.3A105.21,105.21,0,0,0,767,896.06,105.18,105.18,0,0,0,885.91,783.22a105.16,105.16,0,0,0,70.56-147.91A105.22,105.22,0,0,0,969.33,471.9Z"/><polygon class="cls-2" points="466.64 709.1 298.37 540.91 351.55 487.69 464.98 601.06 706.15 344.69 760.95 396.24 466.64 709.1"/></g></svg>